<?xml version="1.0" encoding="UTF-8"?>
<svg width="55px" height="38px" viewBox="0 0 55 38" version="1.1" xmlns="http://www.w3.org/2000/svg" xmlns:xlink="http://www.w3.org/1999/xlink">
    <!-- Generator: Sketch 64 (93537) - https://sketch.com -->
    <title>alarm-clock</title>
    <desc>Created with Sketch.</desc>
    <g id="Page-1" stroke="none" stroke-width="1" fill="none" fill-rule="evenodd">
        <g id="Our-Courses/Plumbing" transform="translate(-410.000000, -1002.000000)" fill="#435BF6" fill-rule="nonzero">
            <g id="alarm-clock" transform="translate(410.000000, 1002.000000)">
                <path d="M11.0147168,15.2768945 L10.6023242,15.6892871 C10.4991992,15.7795215 10.3831836,15.8053027 10.2929492,15.8053027 C9.97068359,15.8053027 9.75165039,15.4702539 9.75165039,15.1350977 C9.75165039,14.9030664 9.86766602,14.658252 10.0738086,14.5293457 L11.5946875,13.3694043 C11.6849219,13.2920605 11.8009375,13.240498 11.942627,13.240498 C12.2906738,13.240498 12.6901758,13.446748 12.6901758,13.7817969 L12.6901758,22.1593066 C12.6901758,22.5073535 12.2647852,22.6877148 11.8523926,22.6877148 C11.4271094,22.6877148 11.0147168,22.5072461 11.0147168,22.1593066 L11.0147168,15.2768945 Z" id="Path"></path>
                <path d="M20.0622168,19.6331738 L20.0622168,19.8136426 C20.0622168,21.9660547 18.7475879,22.765166 17.0463477,22.765166 C15.3451074,22.765166 14.0175879,21.9660547 14.0175879,19.8136426 L14.0175879,16.2178027 C14.0175879,14.0653906 15.3708887,13.2663867 17.1236914,13.2663867 C19.1858691,13.2663867 20.0622168,14.5423437 20.0622168,15.6249414 C20.0622168,16.1533496 19.8045117,16.3209277 19.2759961,16.3209277 C18.812041,16.3209277 18.399541,16.1920215 18.399541,15.6893945 C18.399541,15.0836426 17.7937891,14.7357031 17.0849121,14.7357031 C16.208457,14.7357031 15.6800488,15.1996582 15.6800488,16.2179102 L15.6800488,17.6227734 C16.105332,17.1201465 16.7239746,16.965459 17.3941797,16.965459 C18.8507129,16.9653516 20.0622168,17.5968848 20.0622168,19.6331738 L20.0622168,19.6331738 Z M15.6801563,19.9167676 C15.6801563,20.9350195 16.1956738,21.3989746 17.0463477,21.3989746 C17.8841309,21.3989746 18.3867578,20.9350195 18.3867578,19.9167676 L18.3867578,19.7491895 C18.3867578,18.6794824 17.8841309,18.279873 17.033457,18.279873 C16.2214551,18.279873 15.6801563,18.6537012 15.6801563,19.6331738 L15.6801563,19.9167676 Z" id="Shape"></path>
                <path d="M28.5889355,19.903877 L28.5889355,19.6589551 C28.5889355,18.7052637 27.9960742,18.4345605 27.1711816,18.4345605 C26.7973535,18.4345605 26.6685547,18.1124023 26.6685547,17.7772461 C26.6685547,17.4550879 26.7974609,17.1199316 27.1711816,17.1199316 C27.8156055,17.1199316 28.3569043,16.9652441 28.3569043,15.8568652 C28.3569043,15.0061914 27.918623,14.7227051 27.2227441,14.7227051 C26.3849609,14.7227051 26.0756934,15.0706445 26.0756934,15.5862695 C26.0756934,15.9728809 25.8952246,16.2306934 25.276582,16.2306934 C24.5290332,16.2306934 24.4130176,16.0502246 24.4130176,15.5089258 C24.4130176,14.5939063 25.0574414,13.2663867 27.2355273,13.2663867 C28.7950781,13.2663867 29.9550195,13.859248 29.9550195,15.5734863 C29.9550195,16.5916309 29.5812988,17.4165234 28.9497656,17.7130078 C29.7102051,18.0094922 30.2643945,18.5894629 30.2643945,19.6591699 L30.2643945,19.9040918 C30.2643945,21.9791602 28.8725293,22.7653809 27.1711816,22.7653809 C25.0574414,22.7653809 24.2067676,21.4636426 24.2067676,20.4197168 C24.2067676,19.9041992 24.4259082,19.7624023 25.0058789,19.7624023 C25.6889746,19.7624023 25.8694434,19.9428711 25.8694434,20.3552637 C25.8694434,20.9352344 26.3849609,21.2960645 27.2098535,21.2960645 C28.1764355,21.2958496 28.5889355,20.883457 28.5889355,19.903877 L28.5889355,19.903877 Z" id="Path"></path>
                <path d="M33.911582,16.8622266 C35.6128223,16.8622266 36.9403418,17.5968848 36.9403418,19.6203906 L36.9403418,19.8653125 C36.9403418,21.9790527 35.5999316,22.7652734 33.9373633,22.7652734 C31.9654199,22.7652734 30.8957129,21.6311133 30.8957129,20.4323926 C30.8957129,19.8395312 31.2049805,19.6719531 31.7334961,19.6719531 C32.442373,19.6719531 32.5711719,19.9554395 32.5711719,20.316377 C32.5711719,20.9479102 33.1511426,21.295957 33.8986914,21.295957 C34.7493652,21.295957 35.2648828,20.8448926 35.2648828,19.8653125 L35.2648828,19.6203906 C35.2648828,18.640918 34.7493652,18.1768555 33.911582,18.1768555 L32.0041992,18.1768555 C31.475791,18.1768555 31.3339941,17.919043 31.3339941,17.519541 C31.3339941,17.416416 31.3468848,17.3004004 31.3468848,17.1843848 L31.682041,13.7946875 C31.7078223,13.4724219 31.8109473,13.2662793 32.0041992,13.2662793 L35.9738672,13.2662793 C36.3090234,13.2662793 36.4764941,13.6401074 36.4764941,14.0009375 C36.4764941,14.3746582 36.308916,14.7355957 35.9738672,14.7355957 L33.0739062,14.7355957 L32.9192187,16.8622266 L33.911582,16.8622266 Z" id="Path"></path>
                <circle id="Oval" cx="22.2913281" cy="15.9151953" r="1"></circle>
                <circle id="Oval" cx="22.2913281" cy="20.5120996" r="1"></circle>
                <path d="M52.5319824,3.5965918 L40.9430957,3.5965918 L40.9430957,1.98655273 C40.9430957,0.930595703 40.084043,0.0715429687 39.0280859,0.0715429687 L31.352041,0.0715429687 C30.296084,0.0715429687 29.4370313,0.930595703 29.4370313,1.98655273 L29.4370313,3.5965918 L25.5630762,3.5965918 L25.5630762,1.98655273 C25.5630762,0.930595703 24.7040234,0.0715429687 23.6480664,0.0715429687 L15.9721289,0.0715429687 C14.9161719,0.0715429687 14.0571191,0.930595703 14.0571191,1.98655273 L14.0571191,3.5965918 L2.46801758,3.5965918 C1.10719727,3.5965918 0,4.70378906 0,6.06460937 L0,30.56625 C0,31.9271777 1.10719727,33.0342676 2.46801758,33.0342676 L6.00026367,33.0342676 L6.00026367,35.3961523 C6.00026367,36.4521094 6.85931641,37.3111621 7.91527344,37.3111621 L15.5912109,37.3111621 C16.647168,37.3111621 17.5062207,36.4521094 17.5062207,35.3961523 L17.5062207,33.0342676 L20.7262988,33.0342676 C21.1712402,33.0342676 21.5319629,32.6735449 21.5319629,32.2286035 C21.5319629,31.7836621 21.1712402,31.4229395 20.7262988,31.4229395 L2.46801758,31.4229395 C1.99568359,31.4229395 1.61132813,31.0386914 1.61132813,30.56625 L1.61132813,6.06460937 C1.61132813,5.59227539 1.99568359,5.20791992 2.46801758,5.20791992 L52.5319824,5.20791992 C53.0043164,5.20791992 53.3886719,5.59216797 53.3886719,6.06460937 L53.3886719,30.56625 C53.3886719,31.038584 53.0043164,31.4229395 52.5319824,31.4229395 L23.9490625,31.4229395 C23.5041211,31.4229395 23.1433984,31.7836621 23.1433984,32.2286035 C23.1433984,32.6735449 23.5041211,33.0342676 23.9490625,33.0342676 L37.4936719,33.0342676 L37.4936719,35.3961523 C37.4936719,36.4521094 38.3527246,37.3111621 39.4086816,37.3111621 L47.0847266,37.3111621 C48.1406836,37.3111621 48.9997363,36.4521094 48.9997363,35.3961523 L48.9997363,33.0342676 L52.5319824,33.0342676 C53.8928027,33.0342676 55,31.9271777 55,30.56625 L55,6.06460937 C55,4.70378906 53.8928027,3.5965918 52.5319824,3.5965918 Z M15.895,35.3961523 C15.895,35.563623 15.7587891,35.699834 15.5913184,35.699834 L7.91538086,35.699834 C7.74791016,35.699834 7.61169922,35.563623 7.61169922,35.3961523 L7.61169922,33.0342676 L15.8951074,33.0342676 L15.8951074,35.3961523 L15.895,35.3961523 Z M31.0483594,1.98666016 C31.0483594,1.81918945 31.1845703,1.68297852 31.352041,1.68297852 L39.0280859,1.68297852 C39.1955566,1.68297852 39.3317676,1.81918945 39.3317676,1.98666016 L39.3317676,3.59669922 L31.0483594,3.59669922 L31.0483594,1.98666016 Z M15.6682324,1.98666016 C15.6682324,1.81918945 15.8044434,1.68297852 15.9719141,1.68297852 L23.6478516,1.68297852 C23.8153223,1.68297852 23.9515332,1.81918945 23.9515332,1.98666016 L23.9515332,3.59669922 L15.668125,3.59669922 L15.668125,1.98666016 L15.6682324,1.98666016 Z M47.3884082,35.3961523 C47.3884082,35.563623 47.2521973,35.699834 47.0847266,35.699834 L39.4086816,35.699834 C39.2412109,35.699834 39.105,35.563623 39.105,35.3961523 L39.105,33.0342676 L47.3884082,33.0342676 L47.3884082,35.3961523 Z" id="Shape"></path>
                <path d="M5.64620117,9.1825293 L32.949834,9.1825293 C33.3947754,9.1825293 33.755498,8.82180664 33.755498,8.37686523 C33.755498,7.93192383 33.3947754,7.57120117 32.949834,7.57120117 L5.64620117,7.57120117 C4.72452148,7.57120117 3.97460937,8.32100586 3.97460937,9.24268555 L3.97460937,27.3880664 C3.97460937,28.3097461 4.72441406,29.0596582 5.64620117,29.0596582 L49.3539062,29.0596582 C50.2755859,29.0596582 51.025498,28.3098535 51.025498,27.3880664 L51.025498,9.24279297 C51.025498,8.32111328 50.2756934,7.57120117 49.3539062,7.57120117 L36.1723828,7.57120117 C35.7274414,7.57120117 35.3667187,7.93203125 35.3667187,8.37697266 C35.3667187,8.82191406 35.7274414,9.18263672 36.1723828,9.18263672 L49.3537988,9.18263672 C49.3869922,9.18263672 49.4140625,9.20970703 49.4140625,9.24279297 L49.4140625,27.3881738 C49.4140625,27.4213672 49.3869922,27.4484375 49.3537988,27.4484375 L5.64620117,27.4484375 C5.61300781,27.4484375 5.5859375,27.4214746 5.5859375,27.3881738 L5.5859375,9.24279297 C5.5859375,9.20959961 5.61290039,9.1825293 5.64620117,9.1825293 L5.64620117,9.1825293 Z" id="Path"></path>
                <path d="M42.8109473,15.7191504 L44.9791504,15.7191504 C45.4240918,15.7191504 45.7848145,15.3584277 45.7848145,14.9134863 C45.7848145,14.4685449 45.4240918,14.1078223 44.9791504,14.1078223 L42.8109473,14.1078223 C42.3660059,14.1078223 42.0052832,14.4685449 42.0052832,14.9134863 C42.0052832,15.3584277 42.3660059,15.7191504 42.8109473,15.7191504 Z" id="Path"></path>
                <path d="M42.8109473,21.868623 L43.0893848,21.868623 L43.0893848,22.1470605 C43.0893848,22.592002 43.4501074,22.9527246 43.8950488,22.9527246 C44.3399902,22.9527246 44.7007129,22.592002 44.7007129,22.1470605 L44.7007129,21.868623 L44.9791504,21.868623 C45.4240918,21.868623 45.7848145,21.5079004 45.7848145,21.062959 C45.7848145,20.6180176 45.4240918,20.2572949 44.9791504,20.2572949 L44.7007129,20.2572949 L44.7007129,19.9788574 C44.7007129,19.533916 44.3399902,19.1731934 43.8950488,19.1731934 C43.4501074,19.1731934 43.0893848,19.533916 43.0893848,19.9788574 L43.0893848,20.2572949 L42.8109473,20.2572949 C42.3660059,20.2572949 42.0052832,20.6180176 42.0052832,21.062959 C42.0052832,21.5079004 42.3660059,21.868623 42.8109473,21.868623 Z" id="Path"></path>
            </g>
        </g>
    </g>
</svg>