<?xml version="1.0" encoding="UTF-8"?>
<svg width="50px" height="44px" viewBox="0 0 50 44" version="1.1" xmlns="http://www.w3.org/2000/svg" xmlns:xlink="http://www.w3.org/1999/xlink">
    <!-- Generator: Sketch 64 (93537) - https://sketch.com -->
    <title>certificate</title>
    <desc>Created with Sketch.</desc>
    <g id="Page-1" stroke="none" stroke-width="1" fill="none" fill-rule="evenodd">
        <g id="Our-Courses/Plumbing" transform="translate(-413.000000, -1074.000000)" fill="#435BF6" fill-rule="nonzero">
            <g id="certificate" transform="translate(413.000000, 1074.000000)">
                <path d="M45.8333333,0 L4.16666667,0 C1.86662237,0.00278219934 0.0027551,1.8849826 0,4.20765027 L0,34.5027322 C0.0027551,36.8254 1.86662237,38.7076003 4.16666667,38.7103825 L29.1666667,38.7103825 L29.1666667,42.9180328 C29.1667386,43.2583441 29.3697729,43.5651139 29.6811212,43.6953356 C29.9924695,43.8255572 30.3508381,43.7535946 30.5891667,43.5129945 L33.3333333,40.7418361 L36.0775,43.5129945 C36.3158286,43.7535946 36.6741972,43.8255572 36.9855455,43.6953356 C37.2968937,43.5651139 37.4999281,43.2583441 37.5,42.9180328 L37.5,38.7103825 L45.8333333,38.7103825 C48.1333777,38.7076003 49.9972449,36.8254 50,34.5027322 L50,4.20765027 C49.9972449,1.8849826 48.1333777,0.00278219934 45.8333333,0 Z M26.925,16.4645355 C26.7961905,16.4045311 26.7035936,16.2859039 26.6759005,16.1454107 C26.6482074,16.0049174 26.6887626,15.8595252 26.785,15.7542842 C27.5306563,14.9359033 27.5306563,13.6769601 26.785,12.8585792 C26.6884617,12.7532145 26.6478098,12.6074924 26.6756874,12.4667334 C26.703565,12.3259743 26.7965908,12.2072508 26.9258333,12.1474863 C27.9240697,11.6783841 28.400551,10.5156832 28.0225,9.47142077 C27.9732978,9.33697346 27.9908186,9.18686419 28.0696279,9.06765397 C28.1484373,8.94844367 28.2790057,8.87454698 28.4208333,8.86888525 C29.5213285,8.82218958 30.4029258,7.93192079 30.4491667,6.82060109 C30.4546838,6.67716453 30.5279758,6.54509796 30.6462488,6.46547367 C30.7645219,6.38584938 30.9134313,6.36832469 31.0466667,6.41834973 C32.0809308,6.79785621 33.2309628,6.31688457 33.6966667,5.31005464 C33.7556029,5.17971915 33.8729573,5.0859123 34.0121066,5.05790872 C34.1512558,5.02990515 34.2952553,5.07111493 34.3991667,5.1686776 C35.2098525,5.92178178 36.4568142,5.92178178 37.2675,5.1686776 C37.3716829,5.07117892 37.5158813,5.030112 37.6551581,5.05827468 C37.7944349,5.08643735 37.9118576,5.18040576 37.9708333,5.31089617 C38.4356268,6.31820974 39.5861598,6.79917678 40.62,6.41834973 C40.7532353,6.36832469 40.9021448,6.38584938 41.0204178,6.46547367 C41.1386909,6.54509796 41.2119828,6.67716453 41.2175,6.82060109 C41.2642577,7.9334496 42.1479157,8.82433582 43.25,8.86972678 C43.3917682,8.87511265 43.5223832,8.9488147 43.6012298,9.06791485 C43.6800765,9.187015 43.6975933,9.33707041 43.6483333,9.47142077 C43.2699704,10.5159134 43.746966,11.6789853 44.7458333,12.1474863 C44.8746428,12.2074908 44.9672398,12.3261179 44.9949328,12.4666112 C45.0226259,12.6071045 44.9820708,12.7524966 44.8858333,12.8577377 C44.140177,13.6761185 44.140177,14.9350618 44.8858333,15.7534426 C44.9823717,15.8588074 45.0230235,16.0045294 44.9951459,16.1452885 C44.9672683,16.2860476 44.8742426,16.4047711 44.745,16.4645355 C43.7467637,16.9336378 43.2702823,18.0963386 43.6483333,19.1406011 C43.6975356,19.2750484 43.6800148,19.4251577 43.6012054,19.5443679 C43.522396,19.6635782 43.3918277,19.7374749 43.25,19.7431366 C42.1463445,19.7878562 41.261784,20.6811173 41.2175,21.7956284 C41.2119828,21.9390649 41.1386909,22.0711316 41.0204178,22.1507559 C40.9021448,22.2303801 40.7532353,22.2479048 40.62,22.1978798 C39.5857267,21.817945 38.4354107,22.2990355 37.97,23.3061749 C37.9132376,23.4377493 37.7955453,23.5323248 37.6558333,23.5586339 C37.5163303,23.5880841 37.3713733,23.5469337 37.2675,23.4483934 C36.4566589,22.6956915 35.2100078,22.6956915 34.3991667,23.4483934 C34.2952218,23.5468058 34.1503314,23.5879373 34.0108333,23.5586339 C33.8709335,23.532303 33.7529954,23.4377807 33.6958333,23.3061749 C33.2313344,22.2985507 32.0805159,21.8174643 31.0466667,22.1987213 C30.9134313,22.2487463 30.7645219,22.2312216 30.6462488,22.1515974 C30.5279758,22.0719731 30.4546838,21.9399065 30.4491667,21.7964699 C30.4049399,20.6816501 29.5205912,19.7878707 28.4166667,19.7422951 C28.2748985,19.7369092 28.1442835,19.6632072 28.0654368,19.544107 C27.9865902,19.4250069 27.9690733,19.2749515 28.0183333,19.1406011 C28.3972718,18.0972139 27.922254,16.9345503 26.925,16.4645355 Z M36.0783333,32.2238689 L35.8333333,32.4712787 L35.8333333,24.5608962 C35.9448644,24.5605941 36.0523633,24.6029941 36.1341667,24.6795519 C36.5203556,25.0450979 37.0298508,25.2484935 37.5591667,25.2484262 C37.700736,25.2481444 37.8419473,25.2340534 37.9808333,25.2063497 C38.6439428,25.0756245 39.2031016,24.6282894 39.4808333,24.0063279 C39.5784626,23.7941606 39.8209614,23.6931322 40.0383333,23.7740656 C40.2919221,23.8647838 40.5603658,23.9056321 40.8291667,23.8944044 L40.8291667,32.4712787 L38.9183333,30.5416503 C38.5929168,30.2131322 38.0654166,30.2131322 37.74,30.5416503 L36.0783333,32.2238689 Z M35.8333333,40.8865792 L33.9225,38.9569508 C33.5970834,38.6284327 33.0695833,38.6284327 32.7441667,38.9569508 L30.8333333,40.8865792 L30.8333333,23.8927213 C31.1021375,23.9040116 31.370593,23.8631616 31.6241667,23.7723825 C31.8410943,23.6909798 32.0835311,23.7917671 32.1808333,24.0038033 C32.4593392,24.6273672 33.0206723,25.0752638 33.6858333,25.2046667 C33.8441128,25.2362905 34.0053731,25.2501197 34.1666667,25.2459016 L34.1666667,34.5027322 C34.1667386,34.8430435 34.3697729,35.1498134 34.6811212,35.280035 C34.9924695,35.4102567 35.3508381,35.3382941 35.5891667,35.097694 L35.8333333,34.8511257 L35.8333333,40.8865792 Z M48.3333333,34.5027322 C48.3333333,35.8970248 47.2140452,37.0273224 45.8333333,37.0273224 L37.5,37.0273224 L37.5,33.1680656 L38.3333333,32.3265355 L41.0775,35.097694 C41.3158286,35.3382941 41.6741972,35.4102567 41.9855455,35.280035 C42.2968938,35.1498134 42.4999281,34.8430435 42.5,34.5027322 L42.5,22.9796612 C42.7325854,22.6498761 42.8654534,22.2590442 42.8825,21.8545355 C42.8926753,21.6211067 43.0779921,21.4343325 43.3091667,21.4245137 C43.9847491,21.3982041 44.6069338,21.046567 44.9824526,20.4788308 C45.3579715,19.9110945 45.4413419,19.1960231 45.2066667,18.5557377 C45.1271114,18.3367064 45.2271123,18.0926602 45.4366667,17.9944372 C46.0513105,17.7092844 46.4933186,17.1438463 46.6252745,16.4739128 C46.7572304,15.8039792 46.5631359,15.110772 46.1033333,14.6098033 C45.9467017,14.4378345 45.9467017,14.1733458 46.1033333,14.001377 C46.5631462,13.5005655 46.7572556,12.8074638 46.625289,12.1376427 C46.4933225,11.4678216 46.0512873,10.9025292 45.4366667,10.6175847 C45.2264794,10.5199665 45.1259622,10.2755462 45.2058333,10.0562842 C45.4405086,9.41599877 45.3571382,8.70092738 44.9816193,8.1331911 C44.6061004,7.56545485 43.9839158,7.21381778 43.3083333,7.1875082 C43.0771588,7.17768927 42.8918419,6.99091516 42.8816667,6.75748634 C42.8564031,6.07501792 42.5085956,5.44617387 41.9464192,5.06653721 C41.384243,4.68690053 40.6758879,4.60251989 40.0416667,4.83963934 C39.8247181,4.92236333 39.581396,4.82120803 39.485,4.60821858 C39.2026248,3.98752907 38.6426942,3.54117332 37.9792859,3.40791951 C37.3158777,3.27466569 36.6294225,3.47066932 36.1333333,3.93499454 C35.9633158,4.09305337 35.7016842,4.09305337 35.5316667,3.93499454 C35.0357332,3.47065896 34.3493824,3.27464028 33.6860856,3.40790485 C33.0227887,3.54116944 32.4630024,3.98755252 32.1808333,4.60821858 C32.0841041,4.82133294 31.8407283,4.9227267 31.6233333,4.84048087 C30.9891121,4.60336142 30.280757,4.68774206 29.7185808,5.06737874 C29.1564044,5.4470154 28.8085969,6.07585945 28.7833333,6.75832787 C28.7731581,6.99175669 28.5878413,7.1785308 28.3566667,7.18834973 C27.6810843,7.21465931 27.0588996,7.56629638 26.6833808,8.13403263 C26.3078618,8.70176891 26.2244914,9.4168403 26.4591667,10.0571257 C26.5387219,10.276157 26.438721,10.5202032 26.2291667,10.6184262 C25.6145228,10.9035789 25.1725148,11.469017 25.0405588,12.1389506 C24.9086029,12.8088842 25.1026974,13.5020914 25.5625,14.0030601 C25.7191317,14.1750289 25.7191317,14.4395176 25.5625,14.6114863 C25.1026872,15.1122979 24.9085778,15.8053996 25.0405443,16.4752207 C25.1725108,17.1450418 25.6145461,17.7103342 26.2291667,17.9952787 C26.4393539,18.0928968 26.5398712,18.3373172 26.46,18.5565792 C26.2253248,19.1968646 26.3086952,19.911936 26.6842141,20.4796723 C27.0597329,21.0474086 27.6819176,21.3990456 28.3575,21.4253552 C28.5886746,21.4351741 28.7739914,21.6219482 28.7841667,21.855377 C28.8013728,22.2595961 28.9342333,22.6501137 29.1666667,22.9796612 L29.1666667,37.0273224 L4.16666667,37.0273224 C2.78595479,37.0273224 1.66666667,35.8970248 1.66666667,34.5027322 L1.66666667,4.20765027 C1.66666667,2.81335763 2.78595479,1.68306011 4.16666667,1.68306011 L45.8333333,1.68306011 C47.2140452,1.68306011 48.3333333,2.81335763 48.3333333,4.20765027 L48.3333333,34.5027322 Z" id="Shape"></path>
                <path d="M9.16666667,30.295082 C7.78595479,30.295082 6.66666667,29.1647844 6.66666667,27.7704918 L6.66666667,10.9398907 C6.66666667,9.5455981 7.78595479,8.41530055 9.16666667,8.41530055 L24.1666667,8.41530055 C24.6269039,8.41530055 25,8.03853471 25,7.57377049 C25,7.10900628 24.6269039,6.73224044 24.1666667,6.73224044 L9.16666667,6.73224044 C6.86662237,6.73502264 5.0027551,8.61722299 5,10.9398907 L5,27.7704918 C5.0027551,30.0931595 6.86662237,31.9753599 9.16666667,31.9781421 L25,31.9781421 C25.4602373,31.9781421 25.8333333,31.6013762 25.8333333,31.136612 C25.8333333,30.6718478 25.4602373,30.295082 25,30.295082 L9.16666667,30.295082 Z" id="Shape"></path>
                <path d="M10,20.1967213 L21.6666667,20.1967213 C22.1269039,20.1967213 22.5,19.8199554 22.5,19.3551913 C22.5,18.8904271 22.1269039,18.5136612 21.6666667,18.5136612 L10,18.5136612 C9.53976275,18.5136612 9.16666667,18.8904271 9.16666667,19.3551913 C9.16666667,19.8199554 9.53976275,20.1967213 10,20.1967213 Z" id="Shape"></path>
                <path d="M10,16.8306011 L21.6666667,16.8306011 C22.1269039,16.8306011 22.5,16.4538352 22.5,15.989071 C22.5,15.5243069 22.1269039,15.147541 21.6666667,15.147541 L10,15.147541 C9.53976275,15.147541 9.16666667,15.5243069 9.16666667,15.989071 C9.16666667,16.4538352 9.53976275,16.8306011 10,16.8306011 Z" id="Shape"></path>
                <path d="M10,13.4644809 L21.6666667,13.4644809 C22.1269039,13.4644809 22.5,13.087715 22.5,12.6229508 C22.5,12.1581866 22.1269039,11.7814208 21.6666667,11.7814208 L10,11.7814208 C9.53976275,11.7814208 9.16666667,12.1581866 9.16666667,12.6229508 C9.16666667,13.087715 9.53976275,13.4644809 10,13.4644809 Z" id="Shape"></path>
                <path d="M9.23583333,28.1071038 C9.36843267,28.4139157 9.6685015,28.6121842 10,28.6120303 C10.1147262,28.6125439 10.2282842,28.5887488 10.3333333,28.5421749 C11.1048334,28.2527317 11.8138717,27.815867 12.4216667,27.2554754 C12.6472893,27.0280986 12.8445818,26.7737584 13.0091667,26.4980984 C13.3273909,26.8593707 13.7013873,27.1662849 14.1166667,27.4069508 C14.6958386,27.7893629 15.4166962,27.8824113 16.0725,27.6594098 C16.3238853,27.5608581 16.551274,27.4087313 16.7391667,27.2133989 C17.1162638,27.4513594 17.5317005,27.6208205 17.9666667,27.7141093 L18.5966667,27.8647432 C19.8825843,28.2451062 21.218695,28.4239091 22.5583333,28.3949071 C22.8553103,28.3732603 23.1182925,28.1932641 23.2482169,27.9227214 C23.3781414,27.6521786 23.3552695,27.3321911 23.1882169,27.0832952 C23.0211643,26.8343992 22.7353103,26.6944079 22.4383333,26.7160546 C21.2693519,26.7314719 20.1048711,26.5668865 18.985,26.2279672 L18.3408333,26.0739672 C17.5633333,25.8930383 17.3633333,25.576623 17.2808333,25.3536175 C17.1356127,24.9620723 16.7277493,24.7375744 16.323189,24.8265068 C15.9186286,24.9154392 15.6400788,25.2908276 15.6691667,25.7079016 C15.6784794,25.8587849 15.6077163,26.0033054 15.4833333,26.0874317 C15.2886352,26.1124333 15.0918437,26.061246 14.9333333,25.9443716 C14.2593992,25.5206745 13.7526033,24.8732123 13.5,24.1132022 C13.3566168,23.7218689 12.9509194,23.4957329 12.5466034,23.5817781 C12.1422874,23.6678232 11.8614655,24.0400621 11.8866667,24.4565464 C11.9006969,25.0585381 11.6671923,25.6395113 11.2416667,26.0613443 C10.7789415,26.4699884 10.2448117,26.7879108 9.66666667,26.9988087 C9.46393017,27.088005 9.30461533,27.2549195 9.22380742,27.4627935 C9.1429995,27.6706675 9.14732567,27.9024526 9.23583333,28.1071038 Z" id="Shape"></path>
                <path d="M35.8333333,21.0382514 C39.5152317,21.0382514 42.5,18.0241247 42.5,14.3060109 C42.5,10.5878972 39.5152317,7.57377049 35.8333333,7.57377049 C32.151435,7.57377049 29.1666667,10.5878972 29.1666667,14.3060109 C29.1707999,18.0223944 32.1531484,21.0340775 35.8333333,21.0382514 Z M35.8333333,9.2568306 C38.5947571,9.2568306 40.8333333,11.5174256 40.8333333,14.3060109 C40.8333333,17.0945962 38.5947571,19.3551913 35.8333333,19.3551913 C33.0719096,19.3551913 30.8333333,17.0945962 30.8333333,14.3060109 C30.8360895,11.5185793 33.073052,9.25961388 35.8333333,9.2568306 Z" id="Shape"></path>
            </g>
        </g>
    </g>
</svg>