<?xml version="1.0" encoding="UTF-8" standalone="no"?><!DOCTYPE svg PUBLIC "-//W3C//DTD SVG 1.1//EN" "http://www.w3.org/Graphics/SVG/1.1/DTD/svg11.dtd"><svg width="100%" height="100%" viewBox="0 0 70 70" version="1.1" xmlns="http://www.w3.org/2000/svg" xmlns:xlink="http://www.w3.org/1999/xlink" xml:space="preserve" xmlns:serif="http://www.serif.com/" style="fill-rule:evenodd;clip-rule:evenodd;stroke-linejoin:round;stroke-miterlimit:2;"><g id="Page-1"><g id="ATI-HomePage"><g id="drilling-machine"><path id="Shape" d="M62.097,54.194l-15.807,-0c-2.725,-0 -5.006,1.943 -5.531,4.516l-13.662,-0l-0,-6.775l2.258,0l-0,-6.774l-2.258,0l-0,-11.538l11.322,-2.831c0.158,1.722 1.593,3.079 3.355,3.079c0.871,-0 1.658,-0.34 2.258,-0.881l0,7.655l2.258,0l0,6.774l3.387,0l0,4.516l2.258,0l0,-4.516l3.388,0l-0,-6.774l9.032,0l-0,-7.655c0.6,0.542 1.387,0.881 2.258,0.881c1.867,-0 3.387,-1.52 3.387,-3.387c0,-1.868 -1.52,-3.387 -3.387,-3.387c-0.871,-0 -1.658,0.34 -2.258,0.88l-0,-12.171l-4.516,0l-0,-2.258l2.258,0l-0,-3.387c-0,-1.867 -1.52,-3.387 -3.387,-3.387l-9.033,0c-1.867,0 -3.387,1.52 -3.387,3.387l0,3.387l2.258,0l0,2.258l-4.516,0l0,1.491l-16.935,4.909l-0,-4.141l-2.258,-0l-0,-4.517l2.258,0c1.245,0 2.258,-1.012 2.258,-2.258l-0,-2.258c-0,-1.245 -1.013,-2.258 -2.258,-2.258l-2.258,0l-0,-3.387c-0,-1.867 -1.52,-3.387 -3.387,-3.387l-2.258,0c-1.868,0 -3.388,1.52 -3.388,3.387l0,3.387l-2.258,0c-1.245,0 -2.258,1.013 -2.258,2.258l0,2.258c0,1.246 1.013,2.258 2.258,2.258l2.258,0l0,4.517l-2.258,-0l0,27.096l-2.258,0l0,2.258l-4.724,0c-0.341,-0.956 -1.094,-1.709 -2.05,-2.05l0,-4.724l-2.258,0l0,4.724c-1.311,0.467 -2.258,1.709 -2.258,3.179c-0,1.47 0.947,2.712 2.258,3.18l0,4.724l2.258,-0l0,-4.724c0.956,-0.341 1.709,-1.094 2.05,-2.051l4.724,0l0,2.258l2.258,0l0,6.775l-4.516,-0l0,6.774l4.764,-0l1.129,4.516l10.795,-0l1.13,-4.516l25.333,-0l1.129,4.516l10.796,-0l1.129,-4.516l4.763,-0l-0,-6.774l-2.372,-0c-0.525,-2.573 -2.806,-4.516 -5.531,-4.516Zm-58.71,-4.517c-0.622,0 -1.129,-0.505 -1.129,-1.129c0,-0.623 0.507,-1.129 1.129,-1.129c0.622,0 1.129,0.506 1.129,1.129c0,0.624 -0.507,1.129 -1.129,1.129Zm42.903,6.775l15.807,-0c1.47,-0 2.712,0.947 3.179,2.258l-22.165,-0c0.467,-1.311 1.709,-2.258 3.179,-2.258Zm-4.516,-24.839c-0.622,-0 -1.129,-0.506 -1.129,-1.129c0,-0.623 0.507,-1.129 1.129,-1.129c0.622,-0 1.129,0.506 1.129,1.129c0,0.623 -0.507,1.129 -1.129,1.129Zm11.291,13.548l-4.517,0l0,-4.516l4.517,0l-0,4.516Zm-6.775,-6.774l0,-6.774l2.372,-0c0.525,2.573 2.805,4.516 5.532,4.516c2.726,0 5.006,-1.943 5.531,-4.516l2.372,-0l-0,6.774l-15.807,0Zm4.516,-7.903c0,-1.868 1.52,-3.387 3.388,-3.387c1.867,-0 3.387,1.519 3.387,3.387c-0,1.867 -1.52,3.387 -3.387,3.387c-1.868,-0 -3.388,-1.52 -3.388,-3.387Zm15.807,-1.129c0.622,-0 1.129,0.506 1.129,1.129c-0,0.623 -0.507,1.129 -1.129,1.129c-0.622,-0 -1.129,-0.506 -1.129,-1.129c-0,-0.623 0.507,-1.129 1.129,-1.129Zm-18.065,-19.194c0,-0.623 0.507,-1.129 1.129,-1.129l9.033,0c0.622,0 1.129,0.506 1.129,1.129l-0,1.129l-11.291,0l0,-1.129Zm2.258,3.387l6.775,0l-0,2.258l-6.775,0l0,-2.258Zm11.291,4.517l-0,11.29l-2.372,-0c-0.525,-2.573 -2.805,-4.516 -5.531,-4.516c-2.727,-0 -5.007,1.943 -5.532,4.516l-2.372,-0l0,-11.29l15.807,-0Zm-18.065,1.585l0,8.329c-0.6,-0.542 -1.387,-0.881 -2.258,-0.881c-1.013,-0 -1.914,0.456 -2.534,1.164l-12.143,3.035l-0,-6.738l16.935,-4.909Zm-25.967,-16.263c-0,-0.623 0.506,-1.129 1.129,-1.129l2.258,0c0.622,0 1.129,0.506 1.129,1.129l-0,3.387l-4.516,0l-0,-3.387Zm-4.517,5.645l13.549,0l0.001,2.258l-13.55,0l0,-2.258Zm4.517,4.516l4.516,0l-0,4.517l-4.516,-0l-0,-4.517Zm-2.259,6.775l9.033,-0l-0,24.838l-9.033,0l0,-24.838Zm-2.258,27.096l13.549,0l-0,2.258l-13.549,0l0,-2.258Zm2.258,4.516l9.033,0l-0,6.775l-9.033,-0l0,-6.775Zm8.151,15.807l-7.269,-0l-0.564,-2.258l8.397,-0l-0.564,2.258Zm38.387,-0l-7.269,-0l-0.564,-2.258l8.398,-0l-0.565,2.258Zm5.398,-4.516l-56.452,-0l0,-2.258l56.452,-0l-0,2.258Z" style="fill:#fff;fill-rule:nonzero;"/><circle id="Oval" cx="54.194" cy="30.484" r="1.129" style="fill:#fff;"/><rect id="Rectangle" x="48.548" y="20.323" width="2.258" height="2.258" style="fill:#fff;"/><rect id="Rectangle1" serif:id="Rectangle" x="53.065" y="20.323" width="2.258" height="2.258" style="fill:#fff;"/><rect id="Rectangle2" serif:id="Rectangle" x="57.581" y="20.323" width="2.258" height="2.258" style="fill:#fff;"/></g></g></g></svg>