<?xml version="1.0" encoding="UTF-8" standalone="no"?><!DOCTYPE svg PUBLIC "-//W3C//DTD SVG 1.1//EN" "http://www.w3.org/Graphics/SVG/1.1/DTD/svg11.dtd"><svg width="100%" height="100%" viewBox="0 0 70 70" version="1.1" xmlns="http://www.w3.org/2000/svg" xmlns:xlink="http://www.w3.org/1999/xlink" xml:space="preserve" xmlns:serif="http://www.serif.com/" style="fill-rule:evenodd;clip-rule:evenodd;stroke-linejoin:round;stroke-miterlimit:2;"><g id="Page-1"><g id="ATI-HomePage"><g id="electricity"><path id="Shape" d="M35,0c-19.299,0 -35,15.701 -35,35c0,19.299 15.701,35 35,35c19.299,-0 35,-15.701 35,-35c0,-19.299 -15.701,-35 -35,-35Zm0,67.083c-17.691,0 -32.083,-14.392 -32.083,-32.083c-0,-17.691 14.392,-32.083 32.083,-32.083c17.691,-0 32.083,14.392 32.083,32.083c0,17.691 -14.392,32.083 -32.083,32.083Z" style="fill:#fff;fill-rule:nonzero;"/><path id="Shape1" serif:id="Shape" d="M50.328,31.425c-0.239,-0.515 -0.755,-0.844 -1.323,-0.844l-10.993,-0l5.877,-17.606c0.222,-0.663 -0.059,-1.391 -0.669,-1.733c-0.61,-0.343 -1.376,-0.204 -1.828,0.33l-21.511,25.448c-0.367,0.433 -0.448,1.04 -0.209,1.555c0.238,0.515 0.755,0.845 1.322,0.845l10.993,-0l-5.877,17.605c-0.221,0.664 0.06,1.391 0.669,1.733c0.225,0.126 0.471,0.187 0.714,0.187c0.418,0 0.829,-0.179 1.114,-0.516l21.512,-25.449c0.367,-0.433 0.448,-1.04 0.209,-1.555Zm-19.047,19.323l4.114,-12.325c0.148,-0.445 0.074,-0.934 -0.2,-1.314c-0.274,-0.381 -0.715,-0.606 -1.183,-0.606l-9.875,-0l14.582,-17.251l-4.114,12.325c-0.148,0.445 -0.074,0.934 0.2,1.314c0.274,0.381 0.715,0.606 1.183,0.606l9.875,0l-14.582,17.251Z" style="fill:#fff;fill-rule:nonzero;"/><path id="Path" d="M29.237,7.859c-0.208,-0.778 -1.008,-1.24 -1.786,-1.031c-10.033,2.688 -17.936,10.59 -20.624,20.623c-0.903,3.371 -1.193,6.841 -0.862,10.315c0.072,0.755 0.707,1.32 1.45,1.32c0.046,0 0.093,-0.002 0.14,-0.006c0.802,-0.077 1.39,-0.789 1.313,-1.59c-0.297,-3.127 -0.036,-6.25 0.776,-9.284c2.42,-9.03 9.532,-16.142 18.562,-18.561c0.778,-0.209 1.24,-1.008 1.031,-1.786Z" style="fill:#fff;fill-rule:nonzero;"/><path id="Path1" serif:id="Path" d="M64.035,32.234c-0.076,-0.802 -0.787,-1.39 -1.59,-1.314c-0.802,0.077 -1.39,0.788 -1.314,1.59c0.298,3.127 0.037,6.25 -0.776,9.284c-2.419,9.029 -9.532,16.142 -18.561,18.562c-0.778,0.208 -1.24,1.008 -1.031,1.786c0.174,0.651 0.763,1.081 1.407,1.081c0.125,-0 0.252,-0.016 0.379,-0.05c10.033,-2.689 17.935,-10.591 20.624,-20.624c0.903,-3.371 1.193,-6.841 0.862,-10.315Z" style="fill:#fff;fill-rule:nonzero;"/><path id="Path2" serif:id="Path" d="M9.564,41.486c-0.199,-0.78 -0.993,-1.252 -1.773,-1.053c-0.781,0.199 -1.252,0.994 -1.053,1.774c0.029,0.114 0.059,0.229 0.089,0.343c0.176,0.651 0.764,1.08 1.408,1.08c0.125,0 0.253,-0.016 0.38,-0.05c0.777,-0.21 1.238,-1.009 1.029,-1.787c-0.027,-0.103 -0.054,-0.205 -0.08,-0.307Z" style="fill:#fff;fill-rule:nonzero;"/><path id="Path3" serif:id="Path" d="M60.435,28.513c0.168,0.66 0.762,1.099 1.413,1.099c0.119,0 0.24,-0.014 0.36,-0.045c0.781,-0.198 1.253,-0.992 1.054,-1.773c-0.029,-0.114 -0.059,-0.227 -0.089,-0.341c-0.207,-0.778 -1.006,-1.24 -1.784,-1.034c-0.779,0.208 -1.242,1.007 -1.034,1.785c0.027,0.103 0.054,0.206 0.08,0.309Z" style="fill:#fff;fill-rule:nonzero;"/></g></g></g></svg>