<?xml version="1.0" encoding="UTF-8" standalone="no"?><!DOCTYPE svg PUBLIC "-//W3C//DTD SVG 1.1//EN" "http://www.w3.org/Graphics/SVG/1.1/DTD/svg11.dtd"><svg width="100%" height="100%" viewBox="0 0 75 75" version="1.1" xmlns="http://www.w3.org/2000/svg" xmlns:xlink="http://www.w3.org/1999/xlink" xml:space="preserve" xmlns:serif="http://www.serif.com/" style="fill-rule:evenodd;clip-rule:evenodd;stroke-linejoin:round;stroke-miterlimit:2;"><g id="Page-1"><g id="ATI-HomePage"><g id="Group-9-Copy-4"><path id="G" d="M38.642,46.23c2.438,-0 5.022,-0.756 6.898,-2.169l0,-6.923l-3.607,0l-0,4.997c-0.999,0.536 -1.999,0.731 -3.071,0.731c-3.267,0 -5.533,-2.267 -5.533,-5.46c-0,-3.242 2.266,-5.46 5.581,-5.46c1.731,0 3.169,0.61 4.412,1.926l2.535,-2.34c-1.657,-1.926 -4.143,-2.95 -7.142,-2.95c-5.435,0 -9.384,3.681 -9.384,8.824c0,5.143 3.949,8.824 9.311,8.824Z" style="fill:#fff;fill-rule:nonzero;"/><g id="target-2-" serif:id="target(2)"><path id="Path" d="M25.781,15.527c-0.808,0 -1.465,0.657 -1.465,1.465c0,0.809 0.657,1.465 1.465,1.465c0.809,0 1.465,-0.656 1.465,-1.465c0,-0.808 -0.656,-1.465 -1.465,-1.465Z" style="fill:#fff;fill-rule:nonzero;"/><path id="Shape" d="M73.535,36.035l-4.869,0c-0.366,-7.676 -3.597,-14.91 -9.194,-20.507c-5.597,-5.597 -12.831,-8.828 -20.507,-9.194l-0,-4.869c-0,-0.809 -0.656,-1.465 -1.465,-1.465c-0.809,-0 -1.465,0.656 -1.465,1.465l0,4.869c-7.676,0.366 -14.91,3.597 -20.507,9.194c-5.597,5.597 -8.828,12.831 -9.194,20.507l-4.869,0c-0.809,0 -1.465,0.656 -1.465,1.465c0,0.809 0.656,1.465 1.465,1.465l4.869,-0c0.366,7.676 3.597,14.91 9.194,20.507c5.597,5.597 12.831,8.828 20.507,9.194l0,4.869c0,0.809 0.656,1.465 1.465,1.465c0.809,-0 1.465,-0.656 1.465,-1.465l-0,-4.869c7.676,-0.366 14.91,-3.597 20.507,-9.194c5.597,-5.597 8.828,-12.831 9.194,-20.507l4.869,-0c0.809,-0 1.465,-0.656 1.465,-1.465c0,-0.809 -0.656,-1.465 -1.465,-1.465Zm-37.5,29.696c-14.19,-0.766 -26,-12.576 -26.766,-26.766l3.373,-0c0.733,12.567 10.826,22.66 23.393,23.393l0,3.373Zm1.465,-12.118c-0.809,0 -1.465,0.656 -1.465,1.465l0,4.345c-10.951,-0.725 -19.733,-9.507 -20.458,-20.458l4.345,-0c0.809,-0 1.465,-0.656 1.465,-1.465c-0,-0.809 -0.656,-1.465 -1.465,-1.465l-4.345,0c0.347,-5.287 2.57,-10.22 6.35,-14.021c0.571,-0.574 0.568,-1.501 -0.005,-2.072c-0.574,-0.57 -1.502,-0.568 -2.072,0.006c-4.33,4.354 -6.857,10.02 -7.208,16.087l-3.373,0c0.766,-14.19 12.576,-26 26.766,-26.766l0,3.374c-1.676,0.098 -3.334,0.362 -4.948,0.792c-0.782,0.209 -1.246,1.012 -1.037,1.793c0.208,0.782 1.011,1.247 1.792,1.038c1.368,-0.365 2.773,-0.596 4.193,-0.69l0,4.346c0,0.809 0.656,1.465 1.465,1.465c0.809,-0 1.465,-0.656 1.465,-1.465l-0,-4.345c10.951,0.725 19.733,9.507 20.458,20.458l-4.345,0c-0.809,0 -1.465,0.656 -1.465,1.465c0,0.809 0.656,1.465 1.465,1.465l4.345,-0c-0.725,10.951 -9.507,19.733 -20.458,20.458l-0,-4.345c-0,-0.809 -0.656,-1.465 -1.465,-1.465Zm1.465,12.118l-0,-3.373c12.567,-0.733 22.66,-10.826 23.393,-23.393l3.373,-0c-0.766,14.19 -12.576,26 -26.766,26.766Zm23.393,-29.696c-0.733,-12.567 -10.826,-22.66 -23.393,-23.393l-0,-3.373c14.19,0.766 26,12.576 26.766,26.766l-3.373,0Z" style="fill:#fff;fill-rule:nonzero;"/></g></g></g></g></svg>