<?xml version="1.0" encoding="UTF-8" standalone="no"?><!DOCTYPE svg PUBLIC "-//W3C//DTD SVG 1.1//EN" "http://www.w3.org/Graphics/SVG/1.1/DTD/svg11.dtd"><svg width="100%" height="100%" viewBox="0 0 70 73" version="1.1" xmlns="http://www.w3.org/2000/svg" xmlns:xlink="http://www.w3.org/1999/xlink" xml:space="preserve" xmlns:serif="http://www.serif.com/" style="fill-rule:evenodd;clip-rule:evenodd;stroke-linejoin:round;stroke-miterlimit:2;"><g id="Page-1"><g id="ATI-HomePage"><g id="mask"><path id="Path" d="M50.949,40.295l-0,-0.002c-0.005,0.003 -0.009,0.005 -0.013,0.008c0.008,-0.004 0.013,-0.006 0.013,-0.006Z" style="fill:#435bf6;fill-rule:nonzero;"/><path id="Shape" d="M55.341,25.107l-40.528,0c-1.579,0 -2.864,1.284 -2.864,2.863l0,2.38c0,4.614 2.461,8.663 6.139,10.905c0.1,0.108 0.215,0.201 0.346,0.275c1.899,1.065 4.055,1.629 6.237,1.629l20.734,-0c1.197,-0 2.39,-0.169 3.545,-0.503c0.052,-0.015 0.103,-0.033 0.153,-0.054c0.087,-0.036 0.172,-0.072 0.255,-0.106c0.674,-0.218 1.323,-0.49 1.943,-0.811c0.093,-0.039 0.156,-0.065 0.18,-0.076c0.051,-0.021 0.101,-0.045 0.15,-0.072l0.017,-0.01c0.08,-0.046 0.154,-0.098 0.222,-0.156c3.785,-2.216 6.334,-6.326 6.334,-11.021l0,-2.38c-0,-1.579 -1.284,-2.863 -2.863,-2.863Zm-27.672,11.974c0.488,0.238 1.07,0.176 1.497,-0.161l4.518,-3.553l0.017,2.026c0.004,0.465 0.236,0.899 0.621,1.16c0.384,0.262 0.872,0.318 1.307,0.151l8.026,-3.091l-0.749,2.405c-0.134,0.43 -0.055,0.899 0.212,1.262c0.267,0.363 0.691,0.578 1.142,0.578l1.177,-0c1.398,-0 2.693,0.662 3.522,1.731c-0.179,0.075 -0.374,0.157 -0.582,0.243c-0.927,0.288 -1.913,0.443 -2.933,0.443l-20.734,0c-1.076,0 -2.111,-0.174 -3.082,-0.492l5.247,-5.303l-0.003,1.323c-0.001,0.544 0.308,1.04 0.797,1.278Zm27.699,-6.731c0,3.207 -1.53,6.062 -3.897,7.878c-1.2,-1.769 -3.142,-2.947 -5.297,-3.168l1.06,-3.401c0.161,-0.52 0.012,-1.085 -0.384,-1.457c-0.398,-0.371 -0.972,-0.483 -1.479,-0.288l-8.852,3.408l-0.025,-2.868c-0.004,-0.54 -0.316,-1.032 -0.804,-1.266c-0.487,-0.234 -1.065,-0.17 -1.49,0.164l-4.486,3.53l0.003,-1.855c0.002,-0.575 -0.345,-1.095 -0.877,-1.314c-0.532,-0.22 -1.144,-0.095 -1.548,0.314l-8.323,8.411c-2.529,-1.8 -4.184,-4.753 -4.184,-8.088l-0,-2.38c-0,-0.015 0.012,-0.027 0.028,-0.027l40.528,-0c0.015,-0 0.027,0.012 0.027,0.027l0,2.38Z" style="fill:#fff;fill-rule:nonzero;"/><path id="Path1" serif:id="Path" d="M17.896,19.172c0.223,0.553 0.754,0.888 1.315,0.888c0.177,-0 0.356,-0.033 0.53,-0.103c0.726,-0.294 1.077,-1.12 0.784,-1.846l-0.028,-0.069c-0.293,-0.726 -1.119,-1.078 -1.845,-0.784c-0.726,0.293 -1.077,1.119 -0.784,1.845l0.028,0.069Z" style="fill:#fff;fill-rule:nonzero;"/><path id="Path2" serif:id="Path" d="M24.637,45.9c-0.293,-0.725 -1.12,-1.076 -1.846,-0.782c-0.726,0.294 -1.076,1.12 -0.782,1.846l0.027,0.069c0.223,0.551 0.755,0.886 1.316,0.886c0.176,-0 0.356,-0.033 0.53,-0.104c0.727,-0.293 1.077,-1.12 0.783,-1.846l-0.028,-0.069Z" style="fill:#fff;fill-rule:nonzero;"/><path id="Path3" serif:id="Path" d="M29.485,45.969l-0.027,-0.069c-0.294,-0.725 -1.12,-1.076 -1.846,-0.782c-0.726,0.294 -1.076,1.12 -0.783,1.846l0.028,0.069c0.223,0.551 0.754,0.886 1.315,0.886c0.177,-0 0.357,-0.033 0.531,-0.104c0.726,-0.293 1.076,-1.12 0.782,-1.846Z" style="fill:#fff;fill-rule:nonzero;"/><path id="Path4" serif:id="Path" d="M34.306,45.969l-0.028,-0.069c-0.293,-0.725 -1.12,-1.076 -1.846,-0.782c-0.726,0.294 -1.076,1.12 -0.782,1.846l0.027,0.069c0.223,0.551 0.755,0.886 1.316,0.886c0.176,-0 0.356,-0.033 0.53,-0.104c0.726,-0.293 1.077,-1.12 0.783,-1.846Z" style="fill:#fff;fill-rule:nonzero;"/><path id="Path5" serif:id="Path" d="M39.126,45.969l-0.027,-0.069c-0.294,-0.725 -1.12,-1.076 -1.846,-0.782c-0.726,0.294 -1.076,1.12 -0.783,1.846l0.028,0.069c0.223,0.551 0.754,0.886 1.315,0.886c0.177,-0 0.357,-0.033 0.531,-0.104c0.726,-0.293 1.076,-1.12 0.782,-1.846Z" style="fill:#fff;fill-rule:nonzero;"/><path id="Path6" serif:id="Path" d="M43.919,45.9c-0.293,-0.725 -1.12,-1.076 -1.846,-0.782c-0.726,0.294 -1.076,1.12 -0.782,1.846l0.027,0.069c0.224,0.551 0.755,0.886 1.316,0.886c0.176,-0 0.356,-0.033 0.53,-0.104c0.727,-0.293 1.077,-1.12 0.783,-1.846l-0.028,-0.069Z" style="fill:#fff;fill-rule:nonzero;"/><path id="Path7" serif:id="Path" d="M48.74,45.9c-0.294,-0.725 -1.12,-1.076 -1.846,-0.782c-0.726,0.294 -1.076,1.12 -0.783,1.846l0.028,0.069c0.223,0.551 0.754,0.886 1.315,0.886c0.177,-0 0.357,-0.033 0.531,-0.104c0.726,-0.293 1.076,-1.12 0.782,-1.846l-0.027,-0.069Z" style="fill:#fff;fill-rule:nonzero;"/><path id="Path8" serif:id="Path" d="M33.541,2.018c0.222,0.552 0.754,0.888 1.315,0.888c0.176,-0 0.356,-0.034 0.53,-0.104c0.726,-0.293 1.077,-1.119 0.784,-1.845l-0.028,-0.069c-0.293,-0.726 -1.119,-1.078 -1.845,-0.784c-0.727,0.293 -1.078,1.119 -0.785,1.845l0.029,0.069Z" style="fill:#fff;fill-rule:nonzero;"/><path id="Path9" serif:id="Path" d="M24.923,19.99l26.224,0c0.783,0 1.418,-0.634 1.418,-1.417c-0,-0.784 -0.635,-1.418 -1.418,-1.418l-26.224,-0c-0.784,-0 -1.418,0.634 -1.418,1.418c-0,0.783 0.634,1.417 1.418,1.417Z" style="fill:#fff;fill-rule:nonzero;"/><path id="Path10" serif:id="Path" d="M30.067,52.205c-0.783,0 -1.418,0.635 -1.418,1.417l0,7.869c0,0.783 0.635,1.418 1.418,1.418c0.783,-0 1.418,-0.635 1.418,-1.418l-0,-7.869c-0,-0.782 -0.635,-1.417 -1.418,-1.417Z" style="fill:#fff;fill-rule:nonzero;"/><path id="Path11" serif:id="Path" d="M35.073,55.523c-0.783,-0 -1.418,0.635 -1.418,1.418l-0,4.55c-0,0.783 0.635,1.418 1.418,1.418c0.783,-0 1.417,-0.635 1.417,-1.418l0,-4.55c0,-0.783 -0.634,-1.418 -1.417,-1.418Z" style="fill:#fff;fill-rule:nonzero;"/><path id="Path12" serif:id="Path" d="M40.094,53.342c-0.783,0 -1.417,0.636 -1.417,1.418l-0,6.731c-0,0.783 0.634,1.418 1.417,1.418c0.784,-0 1.418,-0.635 1.418,-1.418l0,-6.731c0,-0.782 -0.634,-1.418 -1.418,-1.418Z" style="fill:#fff;fill-rule:nonzero;"/><path id="Shape1" serif:id="Shape" d="M65.078,22.258l0.325,-1.84c0.416,-2.346 -0.223,-4.738 -1.754,-6.564c-0.773,-0.921 -1.728,-1.644 -2.79,-2.134c-0.655,-5.813 -8.535,-10.435 -20.024,-11.626c-0.778,-0.081 -1.476,0.485 -1.557,1.264c-0.08,0.779 0.485,1.476 1.265,1.556c8.998,0.934 15.809,4.208 17.244,8.076c-0.098,-0.003 -0.196,-0.008 -0.295,-0.008l-44.849,-0c-0.394,-0 -0.785,0.031 -1.169,0.088c1.366,-4.078 8.448,-7.432 17.841,-8.24c0.78,-0.066 1.358,-0.753 1.291,-1.533c-0.067,-0.781 -0.754,-1.36 -1.534,-1.291c-5.81,0.499 -10.847,1.892 -14.567,4.028c-3.809,2.187 -5.962,5.073 -6.1,8.158c-0.69,0.429 -1.319,0.962 -1.86,1.593c-1.529,1.781 -2.201,4.133 -1.844,6.453l0.303,1.974c-2.867,0.692 -5.004,3.277 -5.004,6.354l-0,1.762c-0,3.605 2.933,6.537 6.537,6.537l0.72,-0l2.122,13.805c0.929,6.048 3.998,11.572 8.642,15.556c4.643,3.984 10.57,6.179 16.688,6.179c12.45,-0 23.063,-8.899 25.235,-21.158l2.547,-14.382l0.875,-0c3.604,-0 6.536,-2.932 6.536,-6.537l0,-1.762c0,-3.013 -2.048,-5.554 -4.824,-6.308Zm-58.541,11.771c-2.041,-0 -3.702,-1.66 -3.702,-3.701l0,-1.763c0,-1.626 1.054,-3.01 2.515,-3.506l1.379,8.97l-0.192,-0Zm28.172,35.54c-11.332,-0 -20.806,-8.13 -22.527,-19.33l-4.678,-30.432c-0.231,-1.501 0.204,-3.023 1.193,-4.176c0.989,-1.153 2.427,-1.813 3.946,-1.813l44.849,-0c1.542,-0 2.994,0.677 3.984,1.859c0.991,1.181 1.405,2.729 1.136,4.247l-0.511,2.883c-0.061,0.121 -0.106,0.252 -0.131,0.39l-2.14,12.001c-0.027,0.154 -0.028,0.311 -0.005,0.462l-2.673,15.092c-1.932,10.903 -11.37,18.817 -22.443,18.817Zm32.357,-39.241c0,2.041 -1.66,3.701 -3.701,3.701l-0.372,0l1.587,-8.958c1.445,0.504 2.486,1.879 2.486,3.494l0,1.763Z" style="fill:#fff;fill-rule:nonzero;"/></g></g></g></svg>