<?xml version="1.0" encoding="UTF-8" standalone="no"?><!DOCTYPE svg PUBLIC "-//W3C//DTD SVG 1.1//EN" "http://www.w3.org/Graphics/SVG/1.1/DTD/svg11.dtd"><svg width="100%" height="100%" viewBox="0 0 70 68" version="1.1" xmlns="http://www.w3.org/2000/svg" xmlns:xlink="http://www.w3.org/1999/xlink" xml:space="preserve" xmlns:serif="http://www.serif.com/" style="fill-rule:evenodd;clip-rule:evenodd;stroke-linejoin:round;stroke-miterlimit:2;"><g id="Page-1"><g id="ATI-HomePage"><g id="padlock"><path id="Shape" d="M31.311,28.823l-6.128,-3.305c-0.405,-0.218 -0.892,-0.218 -1.297,-0l-6.127,3.302c-1.03,0.554 -1.706,1.04 -1.726,2.681c-0.021,2.361 0.651,4.885 1.945,7.299c1.392,2.599 3.08,4.502 5.015,5.658c-0,0 -0,0.001 0,0.001c0.583,0.348 1.061,0.521 1.539,0.521c0.479,0 0.957,-0.174 1.54,-0.522c1.935,-1.156 3.622,-3.059 5.015,-5.658c1.293,-2.414 1.966,-4.938 1.945,-7.298c-0.014,-1.638 -0.69,-2.124 -1.721,-2.679Zm-2.633,8.687c-1.139,2.126 -2.525,3.718 -4.007,4.603c-0.055,0.033 -0.101,0.06 -0.139,0.081c-0.037,-0.021 -0.083,-0.048 -0.139,-0.081c-1.482,-0.886 -2.868,-2.477 -4.006,-4.602c-1.078,-2.012 -1.638,-4.081 -1.622,-5.981c0.001,-0.06 0.003,-0.109 0.005,-0.149c0.084,-0.048 0.191,-0.105 0.285,-0.156l5.479,-2.953l5.481,2.956c0.092,0.05 0.197,0.106 0.281,0.154c0.002,0.038 0.003,0.086 0.003,0.144c0.017,1.904 -0.543,3.973 -1.621,5.984Z" style="fill:#fff;fill-rule:nonzero;"/><path id="Shape1" serif:id="Shape" d="M53.342,31.149l-3.822,2.612c-2.727,1.863 -3.428,5.601 -1.561,8.332l0.883,1.289c0.897,1.314 2.262,2.2 3.844,2.496c0.377,0.07 0.754,0.105 1.129,0.105c1.195,0 2.357,-0.355 3.355,-1.039l3.821,-2.611c0.3,-0.205 0.505,-0.52 0.572,-0.876c0.067,-0.356 -0.01,-0.724 -0.215,-1.023l-6.108,-8.928c-0.426,-0.623 -1.275,-0.782 -1.898,-0.357Zm2.285,11.541c-0.709,0.485 -1.575,0.663 -2.438,0.503c-0.863,-0.162 -1.606,-0.642 -2.092,-1.353l-0.883,-1.289c-0.999,-1.462 -0.61,-3.538 0.848,-4.535l2.694,-1.841l4.565,6.673l-2.694,1.842Z" style="fill:#fff;fill-rule:nonzero;"/><path id="Shape2" serif:id="Shape" d="M69.316,40.08l-1.965,-2.867c-0.427,-0.622 -1.277,-0.781 -1.899,-0.355c-0.623,0.426 -0.782,1.276 -0.355,1.899l1.962,2.864c0.374,0.549 0.235,1.296 -0.312,1.669l-8.368,5.724c-3.474,2.378 -8.298,1.883 -11.22,-1.15c-0.462,-0.48 -1.204,-0.556 -1.755,-0.18l-8.561,5.855c-0.299,0.205 -0.505,0.52 -0.572,0.876c-0.066,0.356 0.011,0.725 0.216,1.023l2.38,3.477c0.146,0.213 0.199,0.471 0.151,0.729c-0.049,0.26 -0.193,0.483 -0.408,0.63l-2.398,1.64l-2.931,-4.283c-0.426,-0.623 -1.276,-0.782 -1.899,-0.356c-0.622,0.426 -0.782,1.276 -0.356,1.898l2.931,4.284l-2.4,1.641c-0.446,0.305 -1.057,0.191 -1.361,-0.251l-2.379,-3.48c-0.205,-0.3 -0.52,-0.505 -0.877,-0.572c-0.356,-0.066 -0.724,0.011 -1.023,0.216l-1.022,0.701c-1.089,0.744 -2.581,0.465 -3.326,-0.621c-0.745,-1.088 -0.465,-2.58 0.624,-3.324l20.51,-14.028c0.55,-0.376 0.748,-1.095 0.469,-1.7c-1.768,-3.825 -0.482,-8.5 2.992,-10.875l8.365,-5.725c0.547,-0.373 1.296,-0.232 1.672,0.316l1.976,2.868c0.428,0.621 1.279,0.778 1.9,0.35c0.621,-0.428 0.778,-1.279 0.35,-1.9l-1.974,-2.864c-1.222,-1.786 -3.673,-2.247 -5.465,-1.026l-7.097,4.858l-0,-5.091c-0,-2.08 -1.693,-3.773 -3.773,-3.773l-0.537,0l-0,-2.133c-0,-9.398 -7.647,-17.044 -17.047,-17.044c-9.401,0 -17.05,7.646 -17.05,17.044l-0,2.134l-0.537,-0c-2.08,-0 -3.773,1.692 -3.773,3.772l0,1.884c-1.76,0.056 -3.174,1.503 -3.174,3.274l-0,2.1c-0,1.773 1.414,3.221 3.174,3.277l0,3.369c-1.76,0.057 -3.174,1.503 -3.174,3.274l-0,2.1c-0,1.773 1.414,3.221 3.174,3.278l0,1.88c0,2.08 1.693,3.772 3.773,3.772l20.069,0l-6.365,4.354c-2.333,1.595 -2.932,4.79 -1.336,7.124c1.574,2.292 4.697,2.906 7.017,1.401l1.61,2.354c0.718,1.046 1.883,1.609 3.067,1.609c0.722,0 1.451,-0.209 2.09,-0.647l7.054,-4.824c0.817,-0.558 1.368,-1.405 1.551,-2.382c0.182,-0.976 -0.025,-1.963 -0.583,-2.776l-1.608,-2.348l6.53,-4.466c1.738,1.465 3.895,2.391 6.187,2.639c2.716,0.293 5.448,-0.392 7.692,-1.928l8.365,-5.722c1.79,-1.218 2.252,-3.669 1.029,-5.466Zm-59.1,-23.036c-0,-7.891 6.423,-14.312 14.318,-14.312c7.893,0 14.314,6.421 14.314,14.312l0,2.134l-5.127,-0l0,-3.052c0,-5.067 -4.121,-9.19 -9.187,-9.19c-5.068,0 -9.191,4.123 -9.191,9.19l0,3.052l-5.127,-0l-0,-2.134Zm7.86,2.134l-0,-3.052c-0,-3.561 2.897,-6.458 6.458,-6.458c3.559,0 6.455,2.897 6.455,6.458l-0,3.052l-12.913,-0Zm-15.344,11.03l0,-2.1c0,-0.296 0.251,-0.545 0.549,-0.545l4.197,0c0.297,0 0.548,0.249 0.548,0.545l0,2.1c0,0.297 -0.251,0.548 -0.548,0.548l-4.197,0c-0.298,0 -0.549,-0.251 -0.549,-0.548Zm0,12.02l0,-2.1c0,-0.295 0.251,-0.545 0.549,-0.545l4.197,0c0.297,0 0.548,0.25 0.548,0.545l0,2.1c0,0.297 -0.251,0.549 -0.548,0.549l-4.197,-0c-0.298,-0.001 -0.549,-0.252 -0.549,-0.549Zm4.215,6.198c-0.574,0 -1.041,-0.466 -1.041,-1.04l0,-1.878l1.572,0c1.809,0 3.281,-1.471 3.281,-3.28l-0,-2.1c-0,-1.807 -1.472,-3.277 -3.281,-3.277l-1.572,0l0,-3.363l1.572,0c1.809,0 3.281,-1.471 3.281,-3.28l-0,-2.1c-0,-1.807 -1.472,-3.277 -3.281,-3.277l-1.572,0l0,-1.881c0,-0.564 0.477,-1.04 1.041,-1.04l35.171,-0c0.574,-0 1.04,0.466 1.04,1.04l0,7.153c-1.488,1.432 -2.574,3.254 -3.119,5.277c-0.599,2.225 -0.517,4.572 0.219,6.722l-9.247,6.325l-24.064,-0l-0,-0.001Z" style="fill:#fff;fill-rule:nonzero;"/><path id="Path" d="M62.763,34.282c0.342,0 0.684,-0.127 0.949,-0.383c0.543,-0.525 0.557,-1.39 0.033,-1.932l-0.004,-0.004c-0.524,-0.542 -1.387,-0.555 -1.93,-0.031c-0.542,0.525 -0.555,1.391 -0.031,1.934c0.269,0.277 0.626,0.416 0.983,0.416Z" style="fill:#fff;fill-rule:nonzero;"/></g></g></g></svg>