<?xml version="1.0" encoding="UTF-8"?>
<svg width="49px" height="54px" viewBox="0 0 49 54" version="1.1" xmlns="http://www.w3.org/2000/svg" xmlns:xlink="http://www.w3.org/1999/xlink">
    <!-- Generator: Sketch 64 (93537) - https://sketch.com -->
    <title>pdf(1) copy</title>
    <desc>Created with Sketch.</desc>
    <g id="Symbols" stroke="none" stroke-width="1" fill="none" fill-rule="evenodd">
        <g id="PDF-Download" transform="translate(-83.000000, -68.000000)" fill="#435BF6" fill-rule="nonzero">
            <g id="pdf(1)-copy" transform="translate(83.000000, 68.000000)">
                <path d="M44.945463,25.2080008 L44.7378522,25.2080008 L44.7378522,12.803618 C44.7378522,11.2225039 44.1121435,9.7361413 42.9759826,8.61819876 L35.9793152,1.73372283 C34.8430478,0.615675466 33.3323565,0 31.7256891,0 L10.277537,0 C6.96045,0 4.26193478,2.65524457 4.26193478,5.91914208 L4.26193478,25.2080008 L4.05421739,25.2080008 C1.82876522,25.2080008 0.0182152174,26.9895186 0.0182152174,29.1792857 L0.0182152174,42.3711335 C0.0182152174,44.5609006 1.82876522,46.3424185 4.05421739,46.3424185 L4.26182826,46.3424185 L4.26182826,47.7451398 C4.26182826,51.0089325 6.96034348,53.664177 10.2774304,53.664177 L38.7223565,53.664177 C42.039337,53.664177 44.7378522,51.0089325 44.7378522,47.7451398 L44.7378522,46.3424185 L44.945463,46.3424185 C47.1709152,46.3424185 48.9815717,44.5609006 48.9815717,42.3711335 L48.9815717,29.1794953 C48.9815717,26.9896234 47.1710217,25.2080008 44.945463,25.2080008 Z M35.0466109,5.26185559 L39.709813,9.85028339 L35.4038848,9.85028339 C35.2068196,9.85028339 35.0466109,9.69253882 35.0466109,9.49884317 L35.0466109,5.26185559 Z M7.45673478,5.91914208 C7.45673478,4.38865295 8.722,3.14367624 10.2774304,3.14367624 L31.7255826,3.14367624 C31.7677652,3.14367624 31.8097348,3.14493401 31.8517043,3.14671584 L31.8517043,9.49873835 C31.8517043,11.426052 33.4452696,12.9938548 35.4038848,12.9938548 L41.5429457,12.9938548 L41.5429457,25.2080008 L7.45673478,25.2080008 L7.45673478,5.91914208 Z M41.5429457,47.7454542 C41.5429457,49.2758385 40.2776804,50.5208152 38.7223565,50.5208152 L10.2774304,50.5208152 C8.72210652,50.5208152 7.45673478,49.2758385 7.45673478,47.7454542 L7.45673478,46.3427329 L41.5429457,46.3427329 L41.5429457,47.7454542 L41.5429457,47.7454542 Z M45.7867717,42.3713432 L45.7867717,42.3713432 C45.7867717,42.8277019 45.4093652,43.1989519 44.945463,43.1989519 L43.1415174,43.1989519 C43.1411978,43.1989519 43.1408783,43.1989519 43.1404522,43.1989519 C43.1400261,43.1989519 43.139813,43.1989519 43.139387,43.1989519 L5.85933478,43.1989519 L5.85826957,43.1989519 L4.05421739,43.1989519 L4.05411087,43.1989519 C3.59031522,43.1989519 3.21301522,42.8277019 3.21301522,42.3713432 L3.21301522,29.1794953 C3.21301522,28.7231366 3.59031522,28.3518866 4.05411087,28.3518866 L44.945463,28.3518866 C45.4092587,28.3518866 45.7867717,28.7231366 45.7867717,29.1794953 L45.7867717,42.3713432 L45.7867717,42.3713432 Z" id="Shape"></path>
                <path d="M18.8687283,30.8087189 C18.1630217,30.2110714 17.2243522,29.9122477 16.0535717,29.9122477 L12.6556348,29.9122477 C12.3710087,29.9122477 12.1411348,29.9877135 11.9661196,30.1384356 C11.7908913,30.2893672 11.7035435,30.4670264 11.7035435,30.671413 L11.7035435,40.9440955 C11.7035435,41.191875 11.8292391,41.3829503 12.0810565,41.5175311 C12.3325543,41.6523214 12.6335848,41.719507 12.9839348,41.719507 C13.3339652,41.719507 13.6348891,41.6523214 13.8867065,41.5175311 C14.1383109,41.3829503 14.2642196,41.1919798 14.2642196,40.9440955 L14.2642196,37.4553727 L15.8893152,37.4553727 C17.1039826,37.4553727 18.0806804,37.1513082 18.8194087,36.5428649 C19.558137,35.9346312 19.9274479,34.989736 19.9274479,33.7081793 L19.9274479,33.627368 C19.9275543,32.346021 19.5745413,31.4063665 18.8687283,30.8087189 Z M17.3667717,33.901875 C17.3667717,34.9788354 16.8742152,35.5170536 15.8893152,35.5170536 L14.2643261,35.5170536 L14.2643261,32.1090373 L15.8894217,32.1090373 C16.8743217,32.1090373 17.3668783,32.6476747 17.3668783,33.7242158 L17.3668783,33.901875 L17.3667717,33.901875 Z" id="Shape"></path>
                <path d="M28.0036065,30.8329309 C27.2703109,30.2191421 26.2908435,29.9122477 25.0653109,29.9122477 L22.1598239,29.9122477 C21.8315239,29.9122477 21.5631957,29.9877135 21.3554783,30.1383307 C21.1474413,30.2892624 21.0435826,30.4669216 21.0435826,30.6713082 L21.0435826,40.960132 C21.0435826,41.1649379 21.1475478,41.3424922 21.3554783,41.4932143 C21.5633022,41.644146 21.8315239,41.7192974 22.1598239,41.7192974 L25.0653109,41.7192974 C26.290737,41.7192974 27.2703109,41.412403 28.0036065,40.7986141 C28.7365826,40.1848253 29.1034435,39.2212733 29.1034435,37.907434 L29.1034435,33.724111 C29.1032304,32.4105862 28.7364761,31.4468245 28.0036065,30.8329309 Z M26.5425543,37.9075388 C26.5425543,38.9843944 26.0501043,39.5228222 25.0652043,39.5228222 L23.6042587,39.5228222 L23.6042587,32.1090373 L25.0652043,32.1090373 C26.0501043,32.1090373 26.5425543,32.6476747 26.5425543,33.7243207 L26.5425543,37.9075388 L26.5425543,37.9075388 Z" id="Shape"></path>
                <path d="M38.1150761,30.2353882 C37.9837348,30.0201009 37.7922087,29.9124573 37.5406043,29.9124573 L31.8445674,29.9124573 C31.5381043,29.9124573 31.2754217,29.9798525 31.0567326,30.1144332 C30.8376174,30.2492236 30.7284326,30.4401941 30.7284326,30.6878688 L30.7284326,40.9443051 C30.7284326,41.1920846 30.8541283,41.3831599 31.1059457,41.5177407 C31.3574435,41.6525311 31.6584739,41.7197166 32.0088239,41.7197166 C32.3588543,41.7197166 32.6597783,41.6525311 32.9115957,41.5177407 C33.1632,41.3831599 33.2891087,41.1921894 33.2891087,40.9443051 L33.2891087,36.7770186 L35.767763,36.7770186 C36.0193674,36.7770186 36.211,36.680066 36.3423413,36.4863703 C36.4736826,36.2924651 36.5394065,36.0719371 36.5394065,35.8240528 C36.5394065,35.5551009 36.470913,35.3233579 36.3341391,35.1294526 C36.1971522,34.9355474 36.0083957,34.8388043 35.767763,34.8388043 L33.2891087,34.8388043 L33.2891087,32.1091421 L37.5406043,32.1091421 C37.7811304,32.1091421 37.969887,32.0016033 38.1068739,31.7861064 C38.2436478,31.5707143 38.3121413,31.3071079 38.3121413,30.9946584 C38.3121413,30.7039053 38.2464174,30.4508851 38.1150761,30.2353882 Z" id="Path"></path>
            </g>
        </g>
    </g>
</svg>