<?xml version="1.0" encoding="UTF-8" standalone="no"?><!DOCTYPE svg PUBLIC "-//W3C//DTD SVG 1.1//EN" "http://www.w3.org/Graphics/SVG/1.1/DTD/svg11.dtd"><svg width="100%" height="100%" viewBox="0 0 49 54" version="1.1" xmlns="http://www.w3.org/2000/svg" xmlns:xlink="http://www.w3.org/1999/xlink" xml:space="preserve" xmlns:serif="http://www.serif.com/" style="fill-rule:evenodd;clip-rule:evenodd;stroke-linejoin:round;stroke-miterlimit:2;"><g id="Symbols"><g id="PDF-Download"><g id="pdf-1--copy" serif:id="pdf(1)-copy"><path id="Shape" d="M44.945,25.208l-0.207,0l-0,-12.404c-0,-1.581 -0.626,-3.068 -1.762,-4.186l-6.997,-6.884c-1.136,-1.118 -2.647,-1.734 -4.253,-1.734l-21.448,-0c-3.318,-0 -6.016,2.655 -6.016,5.919l-0,19.289l-0.208,0c-2.225,0 -4.036,1.782 -4.036,3.971l0,13.192c0,2.19 1.811,3.971 4.036,3.971l0.208,0l-0,1.403c-0,3.264 2.698,5.919 6.015,5.919l28.445,0c3.317,0 6.016,-2.655 6.016,-5.919l-0,-1.403l0.207,0c2.226,0 4.037,-1.781 4.037,-3.971l-0,-13.192c-0,-2.189 -1.811,-3.971 -4.037,-3.971Zm-9.898,-19.946l4.663,4.588l-4.306,0c-0.197,0 -0.357,-0.157 -0.357,-0.351l-0,-4.237Zm-27.59,0.657c-0,-1.53 1.265,-2.775 2.82,-2.775l21.449,-0c0.042,-0 0.084,0.001 0.126,0.003l-0,6.352c-0,1.927 1.593,3.495 3.552,3.495l6.139,-0l-0,12.214l-34.086,0l-0,-19.289Zm34.086,41.826c-0,1.531 -1.265,2.776 -2.821,2.776l-28.445,-0c-1.555,-0 -2.82,-1.245 -2.82,-2.776l-0,-1.402l34.086,-0l-0,1.402Zm4.244,-5.374c-0,0.457 -0.378,0.828 -0.842,0.828l-40.891,-0c-0.464,-0 -0.841,-0.371 -0.841,-0.828l0,-13.192c0,-0.456 0.377,-0.827 0.841,-0.827l40.891,-0c0.464,-0 0.842,0.371 0.842,0.827l-0,13.192Z" style="fill:#fff;fill-rule:nonzero;"/><path id="Shape1" serif:id="Shape" d="M18.869,30.809c-0.706,-0.598 -1.645,-0.897 -2.815,-0.897l-3.398,0c-0.285,0 -0.515,0.076 -0.69,0.226c-0.175,0.151 -0.262,0.329 -0.262,0.533l-0,10.273c-0,0.248 0.125,0.439 0.377,0.574c0.252,0.134 0.553,0.202 0.903,0.202c0.35,-0 0.651,-0.068 0.903,-0.202c0.251,-0.135 0.377,-0.326 0.377,-0.574l0,-3.489l1.625,0c1.215,0 2.192,-0.304 2.93,-0.912c0.739,-0.608 1.108,-1.553 1.108,-2.835l0,-0.081c0.001,-1.281 -0.352,-2.221 -1.058,-2.818Zm-1.502,3.093c-0,1.077 -0.493,1.615 -1.478,1.615l-1.625,0l0,-3.408l1.625,0c0.985,0 1.478,0.539 1.478,1.615l-0,0.178l-0,-0Z" style="fill:#fff;fill-rule:nonzero;"/><path id="Shape2" serif:id="Shape" d="M28.004,30.833c-0.734,-0.614 -1.713,-0.921 -2.939,-0.921l-2.905,0c-0.328,0 -0.597,0.076 -0.805,0.226c-0.208,0.151 -0.311,0.329 -0.311,0.533l-0,10.289c-0,0.205 0.104,0.382 0.311,0.533c0.208,0.151 0.477,0.226 0.805,0.226l2.905,0c1.226,0 2.205,-0.307 2.939,-0.92c0.733,-0.614 1.099,-1.578 1.099,-2.892l0,-4.183c0,-1.313 -0.367,-2.277 -1.099,-2.891Zm-1.461,7.075c-0,1.076 -0.493,1.615 -1.478,1.615l-1.461,-0l0,-7.414l1.461,0c0.985,0 1.478,0.539 1.478,1.615l-0,4.184Z" style="fill:#fff;fill-rule:nonzero;"/><path id="Path" d="M38.115,30.235c-0.131,-0.215 -0.323,-0.323 -0.574,-0.323l-5.696,0c-0.307,0 -0.57,0.068 -0.788,0.202c-0.219,0.135 -0.329,0.326 -0.329,0.574l0,10.256c0,0.248 0.126,0.439 0.378,0.574c0.251,0.135 0.552,0.202 0.903,0.202c0.35,-0 0.651,-0.067 0.903,-0.202c0.251,-0.135 0.377,-0.326 0.377,-0.574l0,-4.167l2.479,0c0.251,0 0.443,-0.097 0.574,-0.291c0.132,-0.194 0.197,-0.414 0.197,-0.662c0,-0.269 -0.068,-0.501 -0.205,-0.695c-0.137,-0.193 -0.326,-0.29 -0.566,-0.29l-2.479,-0l0,-2.73l4.252,0c0.24,0 0.429,-0.107 0.566,-0.323c0.137,-0.215 0.205,-0.479 0.205,-0.791c0,-0.291 -0.066,-0.544 -0.197,-0.76Z" style="fill:#fff;fill-rule:nonzero;"/></g></g></g></svg>