<?xml version="1.0" encoding="UTF-8" standalone="no"?><!DOCTYPE svg PUBLIC "-//W3C//DTD SVG 1.1//EN" "http://www.w3.org/Graphics/SVG/1.1/DTD/svg11.dtd"><svg width="100%" height="100%" viewBox="0 0 70 71" version="1.1" xmlns="http://www.w3.org/2000/svg" xmlns:xlink="http://www.w3.org/1999/xlink" xml:space="preserve" xmlns:serif="http://www.serif.com/" style="fill-rule:evenodd;clip-rule:evenodd;stroke-linejoin:round;stroke-miterlimit:2;"><g id="Page-1"><g id="ATI-HomePage"><g id="pipeline"><path id="Shape" d="M68.606,5.547l-6.973,-0c-0.77,-0 -1.394,0.621 -1.394,1.387l0,0.693l-4.183,-0c-0.525,-0 -0.981,0.288 -1.219,0.714c-12.637,0.492 -22.765,10.868 -22.765,23.554l-0,1.386l-0.697,0c-0.771,0 -1.395,0.621 -1.395,1.387l0,5.547c0,0.766 0.624,1.387 1.395,1.387l0.697,-0l-0,5.13c-0,1.296 -0.508,2.513 -1.43,3.433c-0.923,0.915 -2.148,1.421 -3.451,1.421c-1.302,-0 -2.528,-0.506 -3.451,-1.421c-0.922,-0.92 -1.429,-2.137 -1.429,-3.433l-0,-5.13l0.697,-0c0.77,-0 1.394,-0.621 1.394,-1.387l0,-5.547c0,-0.766 -0.624,-1.387 -1.394,-1.387l-0.697,0l-0,-18.214c0.416,-0.24 0.697,-0.687 0.697,-1.2l-0,-4.16l0.697,0c0.77,0 1.395,-0.621 1.395,-1.387l-0,-6.933c-0,-0.766 -0.625,-1.387 -1.395,-1.387l-22.311,-0c-0.77,-0 -1.394,0.621 -1.394,1.387l0,6.933c0,0.766 0.624,1.387 1.394,1.387l0.698,0l-0,4.16c-0,0.513 0.28,0.96 0.697,1.2l-0,18.214l-0.697,0c-0.771,0 -1.395,0.621 -1.395,1.387l0,5.547c0,0.766 0.624,1.387 1.395,1.387l0.697,-0l-0,5.13c-0,3.277 0.645,6.454 1.917,9.447c0.612,1.438 1.369,2.824 2.251,4.121c0.873,1.286 1.875,2.493 2.98,3.592c1.104,1.098 2.319,2.095 3.611,2.963c1.304,0.877 2.698,1.629 4.144,2.238c3.01,1.265 6.204,1.907 9.499,1.907l0,-0.007l0,0.007c1.813,0 3.53,-0.189 5.243,-0.562c1.665,-0.363 3.296,-0.902 4.85,-1.605c1.524,-0.69 2.984,-1.541 4.338,-2.528c1.343,-0.982 2.59,-2.103 3.704,-3.334c0.514,-0.569 0.468,-1.446 -0.103,-1.958c-0.257,-0.23 -0.587,-0.357 -0.933,-0.357c-0.395,0 -0.773,0.167 -1.036,0.458c-4.097,4.519 -9.951,7.113 -16.063,7.113c-5.771,-0 -11.198,-2.237 -15.283,-6.296c-4.081,-4.062 -6.33,-9.459 -6.33,-15.199l-0,-5.13l13.944,-0l-0,5.13c-0,1.031 0.203,2.029 0.602,2.969c0.387,0.909 0.94,1.724 1.644,2.424c0.705,0.701 1.524,1.25 2.438,1.635c0.945,0.397 1.949,0.599 2.985,0.599c1.036,0 2.04,-0.202 2.986,-0.599c0.913,-0.385 1.733,-0.934 2.437,-1.635c0.704,-0.7 1.258,-1.515 1.644,-2.424c0.399,-0.94 0.603,-1.938 0.603,-2.969l-0,-5.13l13.944,-0l-0,5.13c-0,1.35 -0.127,2.7 -0.377,4.016c-0.069,0.365 0.009,0.734 0.219,1.039c0.209,0.306 0.527,0.513 0.893,0.581c0.086,0.017 0.174,0.025 0.26,0.025c0.668,0 1.244,-0.476 1.368,-1.13c0.282,-1.484 0.426,-3.008 0.426,-4.531l-0,-5.13l0.697,-0c0.77,-0 1.394,-0.621 1.394,-1.387l0,-5.547c0,-0.766 -0.624,-1.387 -1.394,-1.387l-0.697,0l-0,-1.109c-0,-2.065 1.425,-3.805 3.349,-4.298c0.254,0.336 0.657,0.554 1.113,0.554l4.183,-0l0,0.693c0,0.766 0.624,1.387 1.394,1.387l6.973,-0c0.77,-0 1.394,-0.621 1.394,-1.387l0,-22.187c0,-0.766 -0.624,-1.387 -1.394,-1.387Zm-46.992,33.281l-18.128,0l0,-2.773l18.128,-0l-0,2.773Zm-2.092,-23.574l-0,18.027l-13.944,0l-0,-18.027l13.944,-0Zm-9.064,-2.774l0,-2.773l4.183,0l0,2.773l-4.183,0Zm6.972,0l0,-2.773l2.789,0l0,2.773l-2.789,0Zm-9.761,0l-2.789,0l0,-2.773l2.789,0l0,2.773Zm-4.88,-5.546l-0,-4.161l19.522,0l-0,4.161l-19.522,-0Zm48.107,31.894l-18.127,0l-0,-2.773l18.127,-0l0,2.773Zm3.765,-13.733c-3.333,0.648 -5.856,3.575 -5.856,7.077l-0,1.109l-13.944,0l-0,-1.386c-0,-11.098 8.784,-20.193 19.8,-20.772l0,13.972Zm5.578,0.559l-2.789,0l0,-2.773l2.789,-0l0,2.773Zm0,-5.547l-2.789,0l0,-4.16l2.789,0l0,4.16Zm0,-6.933l-2.789,-0l0,-2.774l2.789,0l0,2.774Zm6.972,14.56l-4.183,0l-0,-19.414l4.183,0l0,19.414Z" style="fill:#fff;fill-rule:nonzero;"/><path id="Path" d="M14.008,55.709c-0.259,-0.383 -0.691,-0.611 -1.156,-0.611c-0.278,0 -0.548,0.082 -0.779,0.238c-0.308,0.208 -0.517,0.522 -0.589,0.886c-0.071,0.363 0.006,0.732 0.214,1.04c2.52,3.708 6.289,6.39 10.614,7.55c0.12,0.032 0.243,0.049 0.364,0.049c0.629,-0 1.183,-0.422 1.346,-1.026c0.201,-0.738 -0.24,-1.501 -0.983,-1.7c-3.679,-0.986 -6.886,-3.269 -9.031,-6.426Z" style="fill:#fff;fill-rule:nonzero;"/><path id="Path1" serif:id="Path" d="M40.129,22.993c-0.378,0.668 -0.141,1.513 0.53,1.889c0.217,0.121 0.452,0.179 0.683,0.179c0.487,-0 0.96,-0.255 1.217,-0.707c0.141,-0.25 0.292,-0.5 0.448,-0.742c1.453,-2.259 3.481,-4.111 5.865,-5.355c0.681,-0.356 0.944,-1.195 0.586,-1.873c-0.358,-0.678 -1.201,-0.939 -1.883,-0.583c-2.811,1.468 -5.203,3.652 -6.917,6.316c-0.184,0.286 -0.362,0.581 -0.529,0.876Z" style="fill:#fff;fill-rule:nonzero;"/><ellipse id="Oval" cx="47.807" cy="56.901" rx="1.394" ry="1.387" style="fill:#fff;"/></g></g></g></svg>